# xmcd
#
# Track frame offsets: 
#        150
#        15711
#        31590
#        47787
#        68189
#        83473
#        95633
#        109312
#        126170
#        145343
#        160393
#
# Disc length: 2302 seconds
#
# Revision: 0
# Processed by: cddbd v1.5.2PL0 Copyright (c) Steve Scherf et al.
# Submitted via: ExactAudioCopy v1.1
#
DISCID=8e08fc0b
DTITLE=Larry Gatlin and The Gatlin Brothers - The Gospel According To 
DTITLE=Gatlin
DYEAR=2015
DGENRE=Gospel
TTITLE0=Have Not Been About My Fathers Business
TTITLE1=Larry Gatlin and The Gatlin Brothers and Charlie Daniels - What 
TTITLE1=Would Jesus Do?
TTITLE2=Young Jewish Lawyer
TTITLE3=Larry Gatlin and The Gatlin Brothers and The Gaither Vocal Band 
TTITLE3=/ Clean
TTITLE4=I Didn't Really Know How To Love You
TTITLE5=Down Down Down
TTITLE6=All Behind Me Now
TTITLE7=Thank God Mary Loved Her Unborn Child
TTITLE8=I Can Build Another House
TTITLE9=What Are You Waiting For?
TTITLE10=An American With A Remington
EXTD=
EXTT0=
EXTT1=
EXTT2=
EXTT3=
EXTT4=
EXTT5=
EXTT6=
EXTT7=
EXTT8=
EXTT9=
EXTT10=
PLAYORDER=
